<svg xmlns="http://www.w3.org/2000/svg" viewBox="0 0 331 66">
  <title>Jumbo</title>
  <g fill="none" fill-rule="evenodd">
    <path fill="#000" d="M98.3 1.21l5.168 5.286V45.54c0 13.436-5.676 20.27-24.779 20.27-10.107 0-16.979-2.452-20.932-7.186l-4.138-4.145L74.153 1.21l5.172 5.285v43.469c0 1.354.152 2.809.515 4.14 0 .323.116.678.27 1.006a1.37 1.37 0 0 0 1.82.656l8.62-4.005a4.928 4.928 0 0 0 2.846-4.287l1.515-41.127a5.106 5.106 0 0 1 1.695-3.617L98.3 1.21zm-58.478 0l5.174 5.286v42.608c0 10.259-15.553 16.629-28.187 16.629-5.53 0-8.757-1.067-11.637-2.307 0 0-3.62-4.622-5.172-5.297l25.977-8.221a7.403 7.403 0 0 0 5.02-5.575L39.822 1.21zM292.01 4.309c10.415.012 19.632.31 25.752 6.98l3.822 3.896c5.558 5.371 8.942 12.487 8.942 20.321 0 16.691-15.38 30.227-34.356 30.227-10.301 0-19.528-3.974-25.85-10.286v.006l-4.97-5.12c-5.423-5.37-8.35-46.025 25.632-46.025zm-93.545 0s43.77-1.778 48.337 3.119l5.067 5.128c1.967 2.026 3.05 4.68 3.05 8.107 0 4.596-1.489 8.31-6.539 10.265v.067l5.025 5.053.264.254c2.916 2.91 3.354 6.912 3.33 11.17-.043 10.658-9.026 17.127-30.062 17.127h-28.71l-5.155-5.287zM183.82 1.155l5.16 5.293v58.065h-25.695l-5.139-5.299 1.814-4.123a10.924 10.924 0 0 0 .054-8.672l-1.868-4.393-10.625 22.487h-8.308l-5.154-5.299-.738-10.535a10.919 10.919 0 0 0-4.185-7.855l-5.7-4.438v28.127h-10.623l-5.19-5.299 2.61-47.937a8.475 8.475 0 0 1 7.39-7.947l17.037-2.175 5.168 5.306 7.957 17.11 10.863-14.5a13.103 13.103 0 0 1 8.31-5.067l16.862-2.849zm116.65 10.27c-.786-.762-1.92-1.125-2.971-.817-.301.087-.577.222-.78.425h-.55c-6.228 0-7.756 10.195-7.756 24.472 0 8.054.49 14.788 2.006 19.146l1.198.967a3.207 3.207 0 0 0 3.485.353l3.69-1.908a3.205 3.205 0 0 0 1.73-2.7l1.684-36.75a3.201 3.201 0 0 0-.972-2.448zm-70.43 24.346c-2.003-1.091-3.88-1.323-6.032-1.125v18.568c.714 1.82 6.913.516 9.468-5.847 2.186-5.441.064-13.48-3.437-11.596zm-4.069-23.867c-.74 0-1.21.179-1.963.179v11.282c.32.319.703.745 1.041 1.13.481.55 1.307.624 1.88.17l4.67-3.693c.3-.238.488-.593.515-.976l.47-6.453c.091-1.244-1.412-1.937-2.294-1.057l-.044.044c-1.23-.405-2.65-.626-4.275-.626z"/>
    <path fill="#FCBD00" d="M74.153 1.211v43.474c0 4.203 1.498 9.545 6.818 9.545 5.392 0 6.847-5.359 6.847-9.578V1.212H98.3v38.987c0 13.503-5.679 20.342-24.797 20.342-17.065 0-24.998-6.984-24.998-20.342V1.211h25.648zm-34.33 0v42.598c0 10.262-15.533 16.61-28.2 16.61-5.515 0-8.723-1.058-11.623-2.29v-6.297c1.702.857 3.387 1.468 5.172 1.468 5.887 0 8.857-2.794 8.857-7.845V1.21h25.793zM290.98 0c18.992 0 34.376 13.543 34.376 30.224 0 16.69-15.384 30.193-34.376 30.193-18.978 0-34.36-13.504-34.36-30.193C256.62 13.545 272.003 0 290.98 0zm-69.295 1.21c15.67 0 28.074 2.695 28.074 14.17 0 5.846-2.489 10.197-11.558 11.435 12.256 1.624 13.666 8.134 13.612 15.357-.012 10.708-9.006 17.138-30.026 17.138h-28.72V1.21h28.618zm-87.028-.056L146.35 26.33l13.044-25.175h24.425v58.059h-25.674v-33.45l-15.798 33.45h-8.29L118.28 25.258v33.956h-10.659V1.154h27.037zM290.981 5.71c-6.214 0-7.75 10.203-7.75 24.514 0 14.264 1.536 24.465 7.75 24.465 6.187 0 7.765-10.2 7.765-24.465 0-14.31-1.578-24.514-7.765-24.514zm-72.152 23.624V53.63c3.295.353 6.177-.185 8.915-2.704 2.37-2.172 3.72-5.314 3.72-8.866 0-4.264-1.732-7.938-4.713-10.278-2.745-2.193-5.114-2.713-7.922-2.448zm1.965-22.718c-.74 0-1.206.171-1.965.171v17.156c2.602-.092 5.247-.185 7.62-1.583 2.596-1.459 4.163-4.175 4.163-6.962 0-5.412-3.399-8.782-9.818-8.782z"/>
  </g>
</svg>
